# xmcd
#
# Track frame offsets: 
#        150
#        16430
#        36555
#        49715
#        64793
#        79748
#        92735
#        106028
#        127135
#        141580
#        157823
#        174770
#
# Disc length: 2552 seconds
#
# Revision: 0
# Processed by: cddbd v1.4PL0 Copyright (c) Steve Scherf et al.
# Submitted via: ExactAudioCopy v0.95a4
#
DISCID=9b09f60c
DTITLE=Nuca Llacta - Vol 5
DYEAR=1996
DGENRE=Latin
TTITLE0=Bandolero
TTITLE1=Herida de amor
TTITLE2=Que no me cambies
TTITLE3=La vuelta del musico
TTITLE4=Solo te pido
TTITLE5=Tico - tico
TTITLE6=Adoro
TTITLE7=Nuestro amor
TTITLE8=Donde estaras
TTITLE9=Fondo profundo
TTITLE10=Enamorado de ti
TTITLE11=Piez Morena
EXTD=
EXTT0=
EXTT1=
EXTT2=
EXTT3=
EXTT4=
EXTT5=
EXTT6=
EXTT7=
EXTT8=
EXTT9=
EXTT10=
EXTT11=
PLAYORDER=
